<mxfile host="app.diagrams.net" agent="Mozilla/5.0 (Windows NT 10.0; Win64; x64) AppleWebKit/537.36 (KHTML, like Gecko) Chrome/138.0.0.0 Safari/537.36" version="28.0.3" pages="4">
  <diagram name="gf180mcu_osu_sc_gp9t3v3__comp2_x" id="iBF7QikQsVlDDNd1rhgf">
    <mxGraphModel dx="974" dy="458" grid="1" gridSize="10" guides="1" tooltips="1" connect="1" arrows="1" fold="1" page="1" pageScale="1" pageWidth="850" pageHeight="1100" math="0" shadow="0">
      <root>
        <mxCell id="0" />
        <mxCell id="1" parent="0" />
        <mxCell id="UDuHpcNJtMgYb8kW6O1Q-1" value="1-Bit Digital Comparator&lt;div&gt;(gf180mcu_xxx_sc_gp9t3v3__comp2_x)&lt;/div&gt;" style="rounded=1;whiteSpace=wrap;html=1;" parent="1" vertex="1">
          <mxGeometry x="305" y="180" width="240" height="140" as="geometry" />
        </mxCell>
        <mxCell id="UDuHpcNJtMgYb8kW6O1Q-2" value="" style="endArrow=classic;html=1;rounded=0;entryX=0;entryY=0.25;entryDx=0;entryDy=0;" parent="1" target="UDuHpcNJtMgYb8kW6O1Q-1" edge="1">
          <mxGeometry width="50" height="50" relative="1" as="geometry">
            <mxPoint x="210" y="215" as="sourcePoint" />
            <mxPoint x="260" y="200" as="targetPoint" />
          </mxGeometry>
        </mxCell>
        <mxCell id="UDuHpcNJtMgYb8kW6O1Q-3" value="" style="endArrow=classic;html=1;rounded=0;entryX=0;entryY=0.75;entryDx=0;entryDy=0;" parent="1" target="UDuHpcNJtMgYb8kW6O1Q-1" edge="1">
          <mxGeometry width="50" height="50" relative="1" as="geometry">
            <mxPoint x="210" y="285" as="sourcePoint" />
            <mxPoint x="305" y="270" as="targetPoint" />
          </mxGeometry>
        </mxCell>
        <mxCell id="UDuHpcNJtMgYb8kW6O1Q-4" value="A" style="text;html=1;align=center;verticalAlign=middle;whiteSpace=wrap;rounded=0;" parent="1" vertex="1">
          <mxGeometry x="240" y="190" width="30" height="20" as="geometry" />
        </mxCell>
        <mxCell id="UDuHpcNJtMgYb8kW6O1Q-5" value="B" style="text;html=1;align=center;verticalAlign=middle;whiteSpace=wrap;rounded=0;" parent="1" vertex="1">
          <mxGeometry x="240" y="260" width="30" height="20" as="geometry" />
        </mxCell>
        <mxCell id="UDuHpcNJtMgYb8kW6O1Q-6" value="" style="endArrow=classic;html=1;rounded=0;exitX=0.997;exitY=0.135;exitDx=0;exitDy=0;exitPerimeter=0;" parent="1" source="UDuHpcNJtMgYb8kW6O1Q-1" edge="1">
          <mxGeometry width="50" height="50" relative="1" as="geometry">
            <mxPoint x="650" y="170" as="sourcePoint" />
            <mxPoint x="710" y="200" as="targetPoint" />
          </mxGeometry>
        </mxCell>
        <mxCell id="UDuHpcNJtMgYb8kW6O1Q-7" value="" style="endArrow=classic;html=1;rounded=0;exitX=0.997;exitY=0.135;exitDx=0;exitDy=0;exitPerimeter=0;" parent="1" edge="1">
          <mxGeometry width="50" height="50" relative="1" as="geometry">
            <mxPoint x="545" y="249.5" as="sourcePoint" />
            <mxPoint x="711" y="250.5" as="targetPoint" />
          </mxGeometry>
        </mxCell>
        <mxCell id="UDuHpcNJtMgYb8kW6O1Q-8" value="" style="endArrow=classic;html=1;rounded=0;exitX=0.997;exitY=0.135;exitDx=0;exitDy=0;exitPerimeter=0;" parent="1" edge="1">
          <mxGeometry width="50" height="50" relative="1" as="geometry">
            <mxPoint x="545" y="300" as="sourcePoint" />
            <mxPoint x="711" y="301" as="targetPoint" />
          </mxGeometry>
        </mxCell>
        <mxCell id="UDuHpcNJtMgYb8kW6O1Q-9" value="L (A &amp;lt; B)" style="text;html=1;align=center;verticalAlign=middle;whiteSpace=wrap;rounded=0;" parent="1" vertex="1">
          <mxGeometry x="720" y="190" width="60" height="20" as="geometry" />
        </mxCell>
        <mxCell id="UDuHpcNJtMgYb8kW6O1Q-10" value="E (A = B)" style="text;html=1;align=center;verticalAlign=middle;whiteSpace=wrap;rounded=0;" parent="1" vertex="1">
          <mxGeometry x="720" y="240" width="60" height="20" as="geometry" />
        </mxCell>
        <mxCell id="UDuHpcNJtMgYb8kW6O1Q-11" value="G (A &amp;gt; B)" style="text;html=1;align=center;verticalAlign=middle;whiteSpace=wrap;rounded=0;" parent="1" vertex="1">
          <mxGeometry x="720" y="290" width="60" height="20" as="geometry" />
        </mxCell>
      </root>
    </mxGraphModel>
  </diagram>
  <diagram name="gf180mcu_osu_sc_gp9t3v3__comp4_x" id="t6NaBd9Fi2_ZiuF4j9Rk">
    <mxGraphModel dx="974" dy="458" grid="1" gridSize="10" guides="1" tooltips="1" connect="1" arrows="1" fold="1" page="1" pageScale="1" pageWidth="850" pageHeight="1100" math="0" shadow="0">
      <root>
        <mxCell id="3x9aUJDS6ikz3bOlBIn1-0" />
        <mxCell id="3x9aUJDS6ikz3bOlBIn1-1" parent="3x9aUJDS6ikz3bOlBIn1-0" />
        <mxCell id="3x9aUJDS6ikz3bOlBIn1-2" value="2-Bit Digital Comparator&lt;div&gt;(gf180mcu_xxx_sc_gp9t3v3__comp4_x)&lt;/div&gt;" style="rounded=1;whiteSpace=wrap;html=1;" parent="3x9aUJDS6ikz3bOlBIn1-1" vertex="1">
          <mxGeometry x="305" y="180" width="240" height="140" as="geometry" />
        </mxCell>
        <mxCell id="3x9aUJDS6ikz3bOlBIn1-3" value="" style="endArrow=classic;html=1;rounded=0;entryX=0;entryY=0.25;entryDx=0;entryDy=0;" parent="3x9aUJDS6ikz3bOlBIn1-1" edge="1">
          <mxGeometry width="50" height="50" relative="1" as="geometry">
            <mxPoint x="210" y="195" as="sourcePoint" />
            <mxPoint x="305" y="195" as="targetPoint" />
          </mxGeometry>
        </mxCell>
        <mxCell id="3x9aUJDS6ikz3bOlBIn1-4" value="" style="endArrow=classic;html=1;rounded=0;entryX=0;entryY=0.75;entryDx=0;entryDy=0;" parent="3x9aUJDS6ikz3bOlBIn1-1" edge="1">
          <mxGeometry width="50" height="50" relative="1" as="geometry">
            <mxPoint x="210" y="275" as="sourcePoint" />
            <mxPoint x="305" y="275" as="targetPoint" />
          </mxGeometry>
        </mxCell>
        <mxCell id="3x9aUJDS6ikz3bOlBIn1-5" value="A1" style="text;html=1;align=center;verticalAlign=middle;whiteSpace=wrap;rounded=0;" parent="3x9aUJDS6ikz3bOlBIn1-1" vertex="1">
          <mxGeometry x="240" y="170" width="30" height="20" as="geometry" />
        </mxCell>
        <mxCell id="3x9aUJDS6ikz3bOlBIn1-6" value="B1" style="text;html=1;align=center;verticalAlign=middle;whiteSpace=wrap;rounded=0;" parent="3x9aUJDS6ikz3bOlBIn1-1" vertex="1">
          <mxGeometry x="240" y="250" width="30" height="20" as="geometry" />
        </mxCell>
        <mxCell id="3x9aUJDS6ikz3bOlBIn1-7" value="" style="endArrow=classic;html=1;rounded=0;exitX=0.997;exitY=0.135;exitDx=0;exitDy=0;exitPerimeter=0;" parent="3x9aUJDS6ikz3bOlBIn1-1" source="3x9aUJDS6ikz3bOlBIn1-2" edge="1">
          <mxGeometry width="50" height="50" relative="1" as="geometry">
            <mxPoint x="650" y="170" as="sourcePoint" />
            <mxPoint x="710" y="200" as="targetPoint" />
          </mxGeometry>
        </mxCell>
        <mxCell id="3x9aUJDS6ikz3bOlBIn1-8" value="" style="endArrow=classic;html=1;rounded=0;exitX=0.997;exitY=0.135;exitDx=0;exitDy=0;exitPerimeter=0;" parent="3x9aUJDS6ikz3bOlBIn1-1" edge="1">
          <mxGeometry width="50" height="50" relative="1" as="geometry">
            <mxPoint x="545" y="249.5" as="sourcePoint" />
            <mxPoint x="711" y="250.5" as="targetPoint" />
          </mxGeometry>
        </mxCell>
        <mxCell id="3x9aUJDS6ikz3bOlBIn1-9" value="" style="endArrow=classic;html=1;rounded=0;exitX=0.997;exitY=0.135;exitDx=0;exitDy=0;exitPerimeter=0;" parent="3x9aUJDS6ikz3bOlBIn1-1" edge="1">
          <mxGeometry width="50" height="50" relative="1" as="geometry">
            <mxPoint x="545" y="300" as="sourcePoint" />
            <mxPoint x="711" y="301" as="targetPoint" />
          </mxGeometry>
        </mxCell>
        <mxCell id="3x9aUJDS6ikz3bOlBIn1-10" value="L (A &amp;lt; B)" style="text;html=1;align=center;verticalAlign=middle;whiteSpace=wrap;rounded=0;" parent="3x9aUJDS6ikz3bOlBIn1-1" vertex="1">
          <mxGeometry x="720" y="190" width="60" height="20" as="geometry" />
        </mxCell>
        <mxCell id="3x9aUJDS6ikz3bOlBIn1-11" value="E (A = B)" style="text;html=1;align=center;verticalAlign=middle;whiteSpace=wrap;rounded=0;" parent="3x9aUJDS6ikz3bOlBIn1-1" vertex="1">
          <mxGeometry x="720" y="240" width="60" height="20" as="geometry" />
        </mxCell>
        <mxCell id="3x9aUJDS6ikz3bOlBIn1-12" value="G (A &amp;gt; B)" style="text;html=1;align=center;verticalAlign=middle;whiteSpace=wrap;rounded=0;" parent="3x9aUJDS6ikz3bOlBIn1-1" vertex="1">
          <mxGeometry x="720" y="290" width="60" height="20" as="geometry" />
        </mxCell>
        <mxCell id="m6YVuvVCN_-1g0B99J9c-0" value="" style="endArrow=classic;html=1;rounded=0;entryX=0;entryY=0.25;entryDx=0;entryDy=0;" parent="3x9aUJDS6ikz3bOlBIn1-1" edge="1">
          <mxGeometry width="50" height="50" relative="1" as="geometry">
            <mxPoint x="210" y="225" as="sourcePoint" />
            <mxPoint x="305" y="225" as="targetPoint" />
          </mxGeometry>
        </mxCell>
        <mxCell id="m6YVuvVCN_-1g0B99J9c-1" value="A0" style="text;html=1;align=center;verticalAlign=middle;whiteSpace=wrap;rounded=0;" parent="3x9aUJDS6ikz3bOlBIn1-1" vertex="1">
          <mxGeometry x="240" y="200" width="30" height="20" as="geometry" />
        </mxCell>
        <mxCell id="m6YVuvVCN_-1g0B99J9c-4" value="" style="endArrow=classic;html=1;rounded=0;entryX=0;entryY=0.75;entryDx=0;entryDy=0;" parent="3x9aUJDS6ikz3bOlBIn1-1" edge="1">
          <mxGeometry width="50" height="50" relative="1" as="geometry">
            <mxPoint x="210" y="305" as="sourcePoint" />
            <mxPoint x="305" y="305" as="targetPoint" />
          </mxGeometry>
        </mxCell>
        <mxCell id="m6YVuvVCN_-1g0B99J9c-5" value="B0" style="text;html=1;align=center;verticalAlign=middle;whiteSpace=wrap;rounded=0;" parent="3x9aUJDS6ikz3bOlBIn1-1" vertex="1">
          <mxGeometry x="240" y="280" width="30" height="20" as="geometry" />
        </mxCell>
      </root>
    </mxGraphModel>
  </diagram>
  <diagram name="gf180mcu_osu_sc_gp9t3v3__comp6_x" id="KsfHuq8TRhYAEcqBkZ5e">
    <mxGraphModel dx="974" dy="458" grid="1" gridSize="10" guides="1" tooltips="1" connect="1" arrows="1" fold="1" page="1" pageScale="1" pageWidth="850" pageHeight="1100" math="0" shadow="0">
      <root>
        <mxCell id="zfrDx3BnBMX9RrTR67qO-0" />
        <mxCell id="zfrDx3BnBMX9RrTR67qO-1" parent="zfrDx3BnBMX9RrTR67qO-0" />
        <mxCell id="zfrDx3BnBMX9RrTR67qO-2" value="3-Bit Digital Comparator&lt;div&gt;(gf180mcu_xxx_sc_gp9t3v3__comp6_x)&lt;/div&gt;" style="rounded=1;whiteSpace=wrap;html=1;" parent="zfrDx3BnBMX9RrTR67qO-1" vertex="1">
          <mxGeometry x="305" y="160" width="240" height="200" as="geometry" />
        </mxCell>
        <mxCell id="zfrDx3BnBMX9RrTR67qO-3" value="" style="endArrow=classic;html=1;rounded=0;entryX=0;entryY=0.25;entryDx=0;entryDy=0;" parent="zfrDx3BnBMX9RrTR67qO-1" edge="1">
          <mxGeometry width="50" height="50" relative="1" as="geometry">
            <mxPoint x="210" y="190" as="sourcePoint" />
            <mxPoint x="305" y="190" as="targetPoint" />
          </mxGeometry>
        </mxCell>
        <mxCell id="zfrDx3BnBMX9RrTR67qO-5" value="A2" style="text;html=1;align=center;verticalAlign=middle;whiteSpace=wrap;rounded=0;" parent="zfrDx3BnBMX9RrTR67qO-1" vertex="1">
          <mxGeometry x="240" y="175" width="30" height="10" as="geometry" />
        </mxCell>
        <mxCell id="zfrDx3BnBMX9RrTR67qO-11" value="E (A = B)" style="text;html=1;align=center;verticalAlign=middle;whiteSpace=wrap;rounded=0;" parent="zfrDx3BnBMX9RrTR67qO-1" vertex="1">
          <mxGeometry x="718" y="250" width="60" height="20" as="geometry" />
        </mxCell>
        <mxCell id="zfrDx3BnBMX9RrTR67qO-13" value="" style="endArrow=classic;html=1;rounded=0;entryX=0;entryY=0.25;entryDx=0;entryDy=0;" parent="zfrDx3BnBMX9RrTR67qO-1" edge="1">
          <mxGeometry width="50" height="50" relative="1" as="geometry">
            <mxPoint x="210" y="235" as="sourcePoint" />
            <mxPoint x="305" y="235" as="targetPoint" />
          </mxGeometry>
        </mxCell>
        <mxCell id="zfrDx3BnBMX9RrTR67qO-14" value="A0" style="text;html=1;align=center;verticalAlign=middle;whiteSpace=wrap;rounded=0;" parent="zfrDx3BnBMX9RrTR67qO-1" vertex="1">
          <mxGeometry x="240" y="220" width="30" height="10" as="geometry" />
        </mxCell>
        <mxCell id="zfrDx3BnBMX9RrTR67qO-15" value="" style="endArrow=classic;html=1;rounded=0;entryX=0;entryY=0.75;entryDx=0;entryDy=0;" parent="zfrDx3BnBMX9RrTR67qO-1" edge="1">
          <mxGeometry width="50" height="50" relative="1" as="geometry">
            <mxPoint x="207.5" y="324" as="sourcePoint" />
            <mxPoint x="302.5" y="324" as="targetPoint" />
          </mxGeometry>
        </mxCell>
        <mxCell id="zfrDx3BnBMX9RrTR67qO-16" value="B1" style="text;html=1;align=center;verticalAlign=middle;whiteSpace=wrap;rounded=0;" parent="zfrDx3BnBMX9RrTR67qO-1" vertex="1">
          <mxGeometry x="237.5" y="311" width="30" height="10" as="geometry" />
        </mxCell>
        <mxCell id="5jmE3Qw-U--aOMtIg6fI-0" value="" style="endArrow=classic;html=1;rounded=0;entryX=0;entryY=0.25;entryDx=0;entryDy=0;" parent="zfrDx3BnBMX9RrTR67qO-1" edge="1">
          <mxGeometry width="50" height="50" relative="1" as="geometry">
            <mxPoint x="210" y="210" as="sourcePoint" />
            <mxPoint x="305" y="210" as="targetPoint" />
          </mxGeometry>
        </mxCell>
        <mxCell id="5jmE3Qw-U--aOMtIg6fI-1" value="A1" style="text;html=1;align=center;verticalAlign=middle;whiteSpace=wrap;rounded=0;" parent="zfrDx3BnBMX9RrTR67qO-1" vertex="1">
          <mxGeometry x="240" y="195" width="30" height="10" as="geometry" />
        </mxCell>
        <mxCell id="5jmE3Qw-U--aOMtIg6fI-2" value="" style="endArrow=classic;html=1;rounded=0;entryX=0;entryY=0.75;entryDx=0;entryDy=0;" parent="zfrDx3BnBMX9RrTR67qO-1" edge="1">
          <mxGeometry width="50" height="50" relative="1" as="geometry">
            <mxPoint x="210" y="345" as="sourcePoint" />
            <mxPoint x="305" y="345" as="targetPoint" />
          </mxGeometry>
        </mxCell>
        <mxCell id="5jmE3Qw-U--aOMtIg6fI-3" value="B0" style="text;html=1;align=center;verticalAlign=middle;whiteSpace=wrap;rounded=0;" parent="zfrDx3BnBMX9RrTR67qO-1" vertex="1">
          <mxGeometry x="240" y="330" width="30" height="10" as="geometry" />
        </mxCell>
        <mxCell id="5jmE3Qw-U--aOMtIg6fI-5" value="L (A &amp;lt; B)" style="text;html=1;align=center;verticalAlign=middle;whiteSpace=wrap;rounded=0;" parent="zfrDx3BnBMX9RrTR67qO-1" vertex="1">
          <mxGeometry x="718" y="170" width="60" height="20" as="geometry" />
        </mxCell>
        <mxCell id="5jmE3Qw-U--aOMtIg6fI-8" value="" style="endArrow=classic;html=1;rounded=0;entryX=0;entryY=0.5;entryDx=0;entryDy=0;" parent="zfrDx3BnBMX9RrTR67qO-1" edge="1">
          <mxGeometry width="50" height="50" relative="1" as="geometry">
            <mxPoint x="544" y="180" as="sourcePoint" />
            <mxPoint x="714" y="179.99999999999994" as="targetPoint" />
          </mxGeometry>
        </mxCell>
        <mxCell id="5jmE3Qw-U--aOMtIg6fI-9" value="L (A &amp;lt; B)" style="text;html=1;align=center;verticalAlign=middle;whiteSpace=wrap;rounded=0;" parent="zfrDx3BnBMX9RrTR67qO-1" vertex="1">
          <mxGeometry x="718" y="330" width="60" height="20" as="geometry" />
        </mxCell>
        <mxCell id="5jmE3Qw-U--aOMtIg6fI-10" value="" style="endArrow=classic;html=1;rounded=0;entryX=0;entryY=0.5;entryDx=0;entryDy=0;" parent="zfrDx3BnBMX9RrTR67qO-1" edge="1">
          <mxGeometry width="50" height="50" relative="1" as="geometry">
            <mxPoint x="544" y="340" as="sourcePoint" />
            <mxPoint x="714" y="339.99999999999994" as="targetPoint" />
          </mxGeometry>
        </mxCell>
        <mxCell id="5jmE3Qw-U--aOMtIg6fI-11" value="" style="endArrow=classic;html=1;rounded=0;entryX=0;entryY=0.5;entryDx=0;entryDy=0;" parent="zfrDx3BnBMX9RrTR67qO-1" edge="1">
          <mxGeometry width="50" height="50" relative="1" as="geometry">
            <mxPoint x="545" y="259.31000000000006" as="sourcePoint" />
            <mxPoint x="715" y="259.31" as="targetPoint" />
          </mxGeometry>
        </mxCell>
        <mxCell id="5jmE3Qw-U--aOMtIg6fI-12" value="" style="endArrow=classic;html=1;rounded=0;entryX=0;entryY=0.75;entryDx=0;entryDy=0;" parent="zfrDx3BnBMX9RrTR67qO-1" edge="1">
          <mxGeometry width="50" height="50" relative="1" as="geometry">
            <mxPoint x="209" y="306.17" as="sourcePoint" />
            <mxPoint x="304" y="306.17" as="targetPoint" />
          </mxGeometry>
        </mxCell>
        <mxCell id="5jmE3Qw-U--aOMtIg6fI-13" value="B2" style="text;html=1;align=center;verticalAlign=middle;whiteSpace=wrap;rounded=0;" parent="zfrDx3BnBMX9RrTR67qO-1" vertex="1">
          <mxGeometry x="239" y="293.17" width="30" height="10" as="geometry" />
        </mxCell>
      </root>
    </mxGraphModel>
  </diagram>
  <diagram name="gf180mcu_osu_sc_gp9t3v3__comp8_x" id="YI4JajCAN4feyADfYFom">
    <mxGraphModel dx="974" dy="458" grid="1" gridSize="10" guides="1" tooltips="1" connect="1" arrows="1" fold="1" page="1" pageScale="1" pageWidth="850" pageHeight="1100" math="0" shadow="0">
      <root>
        <mxCell id="w7Zsg-N_WJ_Lw3rFykO7-0" />
        <mxCell id="w7Zsg-N_WJ_Lw3rFykO7-1" parent="w7Zsg-N_WJ_Lw3rFykO7-0" />
        <mxCell id="w7Zsg-N_WJ_Lw3rFykO7-2" value="4-Bit Digital Comparator&lt;div&gt;(gf180mcu_xxx_sc_gp9t3v3__comp8_x)&lt;/div&gt;" style="rounded=1;whiteSpace=wrap;html=1;" parent="w7Zsg-N_WJ_Lw3rFykO7-1" vertex="1">
          <mxGeometry x="305" y="160" width="240" height="200" as="geometry" />
        </mxCell>
        <mxCell id="w7Zsg-N_WJ_Lw3rFykO7-3" value="" style="endArrow=classic;html=1;rounded=0;entryX=0;entryY=0.25;entryDx=0;entryDy=0;" parent="w7Zsg-N_WJ_Lw3rFykO7-1" edge="1">
          <mxGeometry width="50" height="50" relative="1" as="geometry">
            <mxPoint x="210" y="190" as="sourcePoint" />
            <mxPoint x="305" y="190" as="targetPoint" />
          </mxGeometry>
        </mxCell>
        <mxCell id="w7Zsg-N_WJ_Lw3rFykO7-4" value="A2" style="text;html=1;align=center;verticalAlign=middle;whiteSpace=wrap;rounded=0;" parent="w7Zsg-N_WJ_Lw3rFykO7-1" vertex="1">
          <mxGeometry x="240" y="175" width="30" height="10" as="geometry" />
        </mxCell>
        <mxCell id="w7Zsg-N_WJ_Lw3rFykO7-5" value="E (A = B)" style="text;html=1;align=center;verticalAlign=middle;whiteSpace=wrap;rounded=0;" parent="w7Zsg-N_WJ_Lw3rFykO7-1" vertex="1">
          <mxGeometry x="718" y="250" width="60" height="20" as="geometry" />
        </mxCell>
        <mxCell id="w7Zsg-N_WJ_Lw3rFykO7-6" value="" style="endArrow=classic;html=1;rounded=0;entryX=0;entryY=0.25;entryDx=0;entryDy=0;" parent="w7Zsg-N_WJ_Lw3rFykO7-1" edge="1">
          <mxGeometry width="50" height="50" relative="1" as="geometry">
            <mxPoint x="210" y="235" as="sourcePoint" />
            <mxPoint x="305" y="235" as="targetPoint" />
          </mxGeometry>
        </mxCell>
        <mxCell id="w7Zsg-N_WJ_Lw3rFykO7-7" value="A0" style="text;html=1;align=center;verticalAlign=middle;whiteSpace=wrap;rounded=0;" parent="w7Zsg-N_WJ_Lw3rFykO7-1" vertex="1">
          <mxGeometry x="240" y="220" width="30" height="10" as="geometry" />
        </mxCell>
        <mxCell id="w7Zsg-N_WJ_Lw3rFykO7-8" value="" style="endArrow=classic;html=1;rounded=0;entryX=0;entryY=0.75;entryDx=0;entryDy=0;" parent="w7Zsg-N_WJ_Lw3rFykO7-1" edge="1">
          <mxGeometry width="50" height="50" relative="1" as="geometry">
            <mxPoint x="207.5" y="324" as="sourcePoint" />
            <mxPoint x="302.5" y="324" as="targetPoint" />
          </mxGeometry>
        </mxCell>
        <mxCell id="w7Zsg-N_WJ_Lw3rFykO7-9" value="B1" style="text;html=1;align=center;verticalAlign=middle;whiteSpace=wrap;rounded=0;" parent="w7Zsg-N_WJ_Lw3rFykO7-1" vertex="1">
          <mxGeometry x="237.5" y="311" width="30" height="10" as="geometry" />
        </mxCell>
        <mxCell id="w7Zsg-N_WJ_Lw3rFykO7-10" value="" style="endArrow=classic;html=1;rounded=0;entryX=0;entryY=0.25;entryDx=0;entryDy=0;" parent="w7Zsg-N_WJ_Lw3rFykO7-1" edge="1">
          <mxGeometry width="50" height="50" relative="1" as="geometry">
            <mxPoint x="210" y="210" as="sourcePoint" />
            <mxPoint x="305" y="210" as="targetPoint" />
          </mxGeometry>
        </mxCell>
        <mxCell id="w7Zsg-N_WJ_Lw3rFykO7-11" value="A1" style="text;html=1;align=center;verticalAlign=middle;whiteSpace=wrap;rounded=0;" parent="w7Zsg-N_WJ_Lw3rFykO7-1" vertex="1">
          <mxGeometry x="240" y="195" width="30" height="10" as="geometry" />
        </mxCell>
        <mxCell id="w7Zsg-N_WJ_Lw3rFykO7-12" value="" style="endArrow=classic;html=1;rounded=0;entryX=0;entryY=0.75;entryDx=0;entryDy=0;" parent="w7Zsg-N_WJ_Lw3rFykO7-1" edge="1">
          <mxGeometry width="50" height="50" relative="1" as="geometry">
            <mxPoint x="210" y="345" as="sourcePoint" />
            <mxPoint x="305" y="345" as="targetPoint" />
          </mxGeometry>
        </mxCell>
        <mxCell id="w7Zsg-N_WJ_Lw3rFykO7-13" value="B0" style="text;html=1;align=center;verticalAlign=middle;whiteSpace=wrap;rounded=0;" parent="w7Zsg-N_WJ_Lw3rFykO7-1" vertex="1">
          <mxGeometry x="240" y="330" width="30" height="10" as="geometry" />
        </mxCell>
        <mxCell id="w7Zsg-N_WJ_Lw3rFykO7-14" value="L (A &amp;lt; B)" style="text;html=1;align=center;verticalAlign=middle;whiteSpace=wrap;rounded=0;" parent="w7Zsg-N_WJ_Lw3rFykO7-1" vertex="1">
          <mxGeometry x="718" y="170" width="60" height="20" as="geometry" />
        </mxCell>
        <mxCell id="w7Zsg-N_WJ_Lw3rFykO7-15" value="" style="endArrow=classic;html=1;rounded=0;entryX=0;entryY=0.5;entryDx=0;entryDy=0;" parent="w7Zsg-N_WJ_Lw3rFykO7-1" edge="1">
          <mxGeometry width="50" height="50" relative="1" as="geometry">
            <mxPoint x="544" y="180" as="sourcePoint" />
            <mxPoint x="714" y="179.99999999999994" as="targetPoint" />
          </mxGeometry>
        </mxCell>
        <mxCell id="w7Zsg-N_WJ_Lw3rFykO7-16" value="L (A &amp;lt; B)" style="text;html=1;align=center;verticalAlign=middle;whiteSpace=wrap;rounded=0;" parent="w7Zsg-N_WJ_Lw3rFykO7-1" vertex="1">
          <mxGeometry x="718" y="330" width="60" height="20" as="geometry" />
        </mxCell>
        <mxCell id="w7Zsg-N_WJ_Lw3rFykO7-17" value="" style="endArrow=classic;html=1;rounded=0;entryX=0;entryY=0.5;entryDx=0;entryDy=0;" parent="w7Zsg-N_WJ_Lw3rFykO7-1" edge="1">
          <mxGeometry width="50" height="50" relative="1" as="geometry">
            <mxPoint x="544" y="340" as="sourcePoint" />
            <mxPoint x="714" y="339.99999999999994" as="targetPoint" />
          </mxGeometry>
        </mxCell>
        <mxCell id="w7Zsg-N_WJ_Lw3rFykO7-18" value="" style="endArrow=classic;html=1;rounded=0;entryX=0;entryY=0.5;entryDx=0;entryDy=0;" parent="w7Zsg-N_WJ_Lw3rFykO7-1" edge="1">
          <mxGeometry width="50" height="50" relative="1" as="geometry">
            <mxPoint x="545" y="259.31000000000006" as="sourcePoint" />
            <mxPoint x="715" y="259.31" as="targetPoint" />
          </mxGeometry>
        </mxCell>
        <mxCell id="w7Zsg-N_WJ_Lw3rFykO7-19" value="" style="endArrow=classic;html=1;rounded=0;entryX=0;entryY=0.75;entryDx=0;entryDy=0;" parent="w7Zsg-N_WJ_Lw3rFykO7-1" edge="1">
          <mxGeometry width="50" height="50" relative="1" as="geometry">
            <mxPoint x="209" y="306.17" as="sourcePoint" />
            <mxPoint x="304" y="306.17" as="targetPoint" />
          </mxGeometry>
        </mxCell>
        <mxCell id="w7Zsg-N_WJ_Lw3rFykO7-20" value="B2" style="text;html=1;align=center;verticalAlign=middle;whiteSpace=wrap;rounded=0;" parent="w7Zsg-N_WJ_Lw3rFykO7-1" vertex="1">
          <mxGeometry x="239" y="293.17" width="30" height="10" as="geometry" />
        </mxCell>
        <mxCell id="HG-Xcn4qCDf57QmuBJGV-0" value="" style="endArrow=classic;html=1;rounded=0;entryX=0;entryY=0.75;entryDx=0;entryDy=0;" parent="w7Zsg-N_WJ_Lw3rFykO7-1" edge="1">
          <mxGeometry width="50" height="50" relative="1" as="geometry">
            <mxPoint x="210" y="288" as="sourcePoint" />
            <mxPoint x="305" y="288" as="targetPoint" />
          </mxGeometry>
        </mxCell>
        <mxCell id="HG-Xcn4qCDf57QmuBJGV-1" value="B3" style="text;html=1;align=center;verticalAlign=middle;whiteSpace=wrap;rounded=0;" parent="w7Zsg-N_WJ_Lw3rFykO7-1" vertex="1">
          <mxGeometry x="240" y="275" width="30" height="10" as="geometry" />
        </mxCell>
        <mxCell id="HG-Xcn4qCDf57QmuBJGV-2" value="" style="endArrow=classic;html=1;rounded=0;entryX=0;entryY=0.25;entryDx=0;entryDy=0;" parent="w7Zsg-N_WJ_Lw3rFykO7-1" edge="1">
          <mxGeometry width="50" height="50" relative="1" as="geometry">
            <mxPoint x="213" y="173.31" as="sourcePoint" />
            <mxPoint x="308" y="173.31" as="targetPoint" />
          </mxGeometry>
        </mxCell>
        <mxCell id="HG-Xcn4qCDf57QmuBJGV-3" value="A3" style="text;html=1;align=center;verticalAlign=middle;whiteSpace=wrap;rounded=0;" parent="w7Zsg-N_WJ_Lw3rFykO7-1" vertex="1">
          <mxGeometry x="240" y="158.31" width="30" height="10" as="geometry" />
        </mxCell>
      </root>
    </mxGraphModel>
  </diagram>
</mxfile>
